%TF.GenerationSoftware,KiCad,Pcbnew,8.0.7*%
%TF.CreationDate,2024-12-28T19:58:12-05:00*%
%TF.ProjectId,vibration_motor_circuit,76696272-6174-4696-9f6e-5f6d6f746f72,rev?*%
%TF.SameCoordinates,Original*%
%TF.FileFunction,Copper,L1,Top*%
%TF.FilePolarity,Positive*%
%FSLAX46Y46*%
G04 Gerber Fmt 4.6, Leading zero omitted, Abs format (unit mm)*
G04 Created by KiCad (PCBNEW 8.0.7) date 2024-12-28 19:58:12*
%MOMM*%
%LPD*%
G01*
G04 APERTURE LIST*
%TA.AperFunction,ComponentPad*%
%ADD10C,1.800000*%
%TD*%
%TA.AperFunction,ComponentPad*%
%ADD11R,2.200000X2.200000*%
%TD*%
%TA.AperFunction,ComponentPad*%
%ADD12O,2.200000X2.200000*%
%TD*%
%TA.AperFunction,ComponentPad*%
%ADD13O,1.800000X1.800000*%
%TD*%
%TA.AperFunction,Conductor*%
%ADD14C,1.500000*%
%TD*%
G04 APERTURE END LIST*
D10*
%TO.P,J1,1,Pin_1*%
%TO.N,Net-(D1-A)*%
X135000000Y-83250000D03*
%TO.P,J1,2,Pin_2*%
%TO.N,+3V3*%
X135050000Y-79200000D03*
%TD*%
D11*
%TO.P,D1,1,K*%
%TO.N,+3V3*%
X130750000Y-77170000D03*
D12*
%TO.P,D1,2,A*%
%TO.N,Net-(D1-A)*%
X130750000Y-87330000D03*
%TD*%
D10*
%TO.P,R1,1*%
%TO.N,Net-(J2-Pin_1)*%
X113130000Y-81750000D03*
D13*
%TO.P,R1,2*%
%TO.N,Net-(Q1-B)*%
X120750000Y-81750000D03*
%TD*%
D10*
%TO.P,Q1,1,E*%
%TO.N,GND*%
X125750000Y-85300000D03*
%TO.P,Q1,2,B*%
%TO.N,Net-(Q1-B)*%
X125750000Y-82150000D03*
%TO.P,Q1,3,C*%
%TO.N,Net-(D1-A)*%
X125750000Y-79300000D03*
%TD*%
%TO.P,J2,1,Pin_1*%
%TO.N,Net-(J2-Pin_1)*%
X113250000Y-85750000D03*
%TO.P,J2,3,Pin_3*%
%TO.N,GND*%
X117250000Y-85750000D03*
%TD*%
D14*
%TO.N,Net-(J2-Pin_1)*%
X113130000Y-85630000D02*
X113250000Y-85750000D01*
X113130000Y-81750000D02*
X113130000Y-85630000D01*
%TO.N,Net-(Q1-B)*%
X121380000Y-82380000D02*
X120750000Y-81750000D01*
X125750000Y-82380000D02*
X121380000Y-82380000D01*
%TO.N,Net-(D1-A)*%
X130750000Y-87330000D02*
X132920000Y-87330000D01*
X132920000Y-87330000D02*
X135000000Y-85250000D01*
X125750000Y-79300000D02*
X127300000Y-79300000D01*
X130750000Y-82750000D02*
X130750000Y-87330000D01*
X127300000Y-79300000D02*
X130750000Y-82750000D01*
X135000000Y-85250000D02*
X135000000Y-83250000D01*
%TO.N,+3V3*%
X135050000Y-79200000D02*
X132780000Y-79200000D01*
X130580000Y-77000000D02*
X130750000Y-77170000D01*
X132780000Y-79200000D02*
X130750000Y-77170000D01*
%TD*%
%TA.AperFunction,Conductor*%
%TO.N,GND*%
G36*
X138192539Y-74020185D02*
G01*
X138238294Y-74072989D01*
X138249500Y-74124500D01*
X138249500Y-89375500D01*
X138229815Y-89442539D01*
X138177011Y-89488294D01*
X138125500Y-89499500D01*
X131624357Y-89499500D01*
X131557318Y-89479815D01*
X131511563Y-89427011D01*
X131501619Y-89357853D01*
X131530644Y-89294297D01*
X131574955Y-89261766D01*
X131718623Y-89199362D01*
X131884399Y-89098552D01*
X131948827Y-89080500D01*
X133034727Y-89080500D01*
X133034734Y-89080500D01*
X133235771Y-89054032D01*
X133235772Y-89054032D01*
X133262229Y-89050550D01*
X133262234Y-89050548D01*
X133262239Y-89050548D01*
X133483887Y-88991158D01*
X133655927Y-88919896D01*
X133695879Y-88903348D01*
X133695880Y-88903347D01*
X133695888Y-88903344D01*
X133755879Y-88868708D01*
X133755880Y-88868708D01*
X133894607Y-88788614D01*
X133894611Y-88788612D01*
X133985635Y-88718766D01*
X133985636Y-88718765D01*
X134076661Y-88648920D01*
X136318919Y-86406661D01*
X136358262Y-86355388D01*
X136458611Y-86224612D01*
X136573344Y-86025888D01*
X136661158Y-85813887D01*
X136709919Y-85631908D01*
X136720548Y-85592239D01*
X136720549Y-85592233D01*
X136724032Y-85565775D01*
X136724032Y-85565771D01*
X136750500Y-85364734D01*
X136750500Y-84017427D01*
X136758318Y-83974094D01*
X136782429Y-83909450D01*
X136828175Y-83786801D01*
X136885961Y-83521160D01*
X136905355Y-83250000D01*
X136885961Y-82978840D01*
X136828175Y-82713199D01*
X136733172Y-82458487D01*
X136733170Y-82458484D01*
X136733169Y-82458480D01*
X136602890Y-82219892D01*
X136602885Y-82219884D01*
X136524733Y-82115485D01*
X136500316Y-82050021D01*
X136500000Y-82041175D01*
X136500000Y-80475616D01*
X136519685Y-80408577D01*
X136524726Y-80401314D01*
X136652887Y-80230113D01*
X136783172Y-79991513D01*
X136878175Y-79736801D01*
X136935961Y-79471160D01*
X136955355Y-79200000D01*
X136935961Y-78928840D01*
X136878175Y-78663199D01*
X136783172Y-78408487D01*
X136783170Y-78408484D01*
X136783169Y-78408480D01*
X136652890Y-78169892D01*
X136652889Y-78169891D01*
X136652887Y-78169887D01*
X136489971Y-77952258D01*
X136489966Y-77952253D01*
X136489961Y-77952247D01*
X136297752Y-77760038D01*
X136297746Y-77760033D01*
X136297742Y-77760029D01*
X136080113Y-77597113D01*
X136080108Y-77597110D01*
X136080107Y-77597109D01*
X135841518Y-77466830D01*
X135841519Y-77466830D01*
X135774094Y-77441682D01*
X135586801Y-77371825D01*
X135586794Y-77371823D01*
X135586793Y-77371823D01*
X135321167Y-77314040D01*
X135321160Y-77314039D01*
X135050001Y-77294645D01*
X135049999Y-77294645D01*
X134778839Y-77314039D01*
X134778832Y-77314040D01*
X134513203Y-77371823D01*
X134325905Y-77441682D01*
X134282572Y-77449500D01*
X133556443Y-77449500D01*
X133489404Y-77429815D01*
X133468762Y-77413181D01*
X132886818Y-76831237D01*
X132853333Y-76769914D01*
X132850499Y-76743556D01*
X132850499Y-76011971D01*
X132850499Y-76011964D01*
X132839886Y-75892582D01*
X132783909Y-75696951D01*
X132689698Y-75516593D01*
X132637684Y-75452803D01*
X132561109Y-75358890D01*
X132403409Y-75230304D01*
X132403410Y-75230304D01*
X132403407Y-75230302D01*
X132223049Y-75136091D01*
X132223048Y-75136090D01*
X132223045Y-75136089D01*
X132105829Y-75102550D01*
X132027418Y-75080114D01*
X132027415Y-75080113D01*
X132027413Y-75080113D01*
X131961102Y-75074217D01*
X131908037Y-75069500D01*
X131908032Y-75069500D01*
X129591971Y-75069500D01*
X129591965Y-75069500D01*
X129591964Y-75069501D01*
X129580316Y-75070536D01*
X129472584Y-75080113D01*
X129276954Y-75136089D01*
X129186772Y-75183196D01*
X129096593Y-75230302D01*
X129096591Y-75230303D01*
X129096590Y-75230304D01*
X128938890Y-75358890D01*
X128810304Y-75516590D01*
X128716089Y-75696954D01*
X128660114Y-75892583D01*
X128660113Y-75892586D01*
X128649500Y-76011966D01*
X128649500Y-77877603D01*
X128629815Y-77944642D01*
X128577011Y-77990397D01*
X128507853Y-78000341D01*
X128450014Y-77975979D01*
X128326339Y-77881081D01*
X128326338Y-77881080D01*
X128274622Y-77841396D01*
X128274616Y-77841392D01*
X128274612Y-77841389D01*
X128263958Y-77835238D01*
X128075891Y-77726657D01*
X128075876Y-77726650D01*
X127863887Y-77638842D01*
X127818408Y-77626656D01*
X127818407Y-77626655D01*
X127679470Y-77589428D01*
X127642239Y-77579452D01*
X127642233Y-77579451D01*
X127642232Y-77579451D01*
X127632362Y-77578151D01*
X127615771Y-77575967D01*
X127615770Y-77575966D01*
X127414744Y-77549501D01*
X127414739Y-77549500D01*
X127414734Y-77549500D01*
X127414727Y-77549500D01*
X126517428Y-77549500D01*
X126474095Y-77541682D01*
X126286796Y-77471823D01*
X126021167Y-77414040D01*
X126021160Y-77414039D01*
X125750001Y-77394645D01*
X125749999Y-77394645D01*
X125478839Y-77414039D01*
X125478832Y-77414040D01*
X125213206Y-77471823D01*
X125213202Y-77471824D01*
X125213199Y-77471825D01*
X125085843Y-77519326D01*
X124958480Y-77566830D01*
X124719892Y-77697109D01*
X124719891Y-77697110D01*
X124502259Y-77860028D01*
X124502247Y-77860038D01*
X124310038Y-78052247D01*
X124310028Y-78052259D01*
X124147110Y-78269891D01*
X124147109Y-78269892D01*
X124016830Y-78508480D01*
X123969326Y-78635843D01*
X123921825Y-78763199D01*
X123921824Y-78763202D01*
X123921823Y-78763206D01*
X123864040Y-79028832D01*
X123864039Y-79028839D01*
X123844645Y-79299998D01*
X123844645Y-79300001D01*
X123864039Y-79571160D01*
X123864040Y-79571167D01*
X123921823Y-79836793D01*
X123921825Y-79836801D01*
X123979530Y-79991513D01*
X124016830Y-80091519D01*
X124147109Y-80330107D01*
X124147114Y-80330115D01*
X124222778Y-80431190D01*
X124247195Y-80496654D01*
X124232343Y-80564927D01*
X124182938Y-80614332D01*
X124123511Y-80629500D01*
X122347294Y-80629500D01*
X122280255Y-80609815D01*
X122248027Y-80579811D01*
X122224020Y-80547742D01*
X122189971Y-80502258D01*
X122189966Y-80502253D01*
X122189961Y-80502247D01*
X121997752Y-80310038D01*
X121997746Y-80310033D01*
X121997742Y-80310029D01*
X121780113Y-80147113D01*
X121780108Y-80147110D01*
X121780107Y-80147109D01*
X121541518Y-80016830D01*
X121541519Y-80016830D01*
X121473641Y-79991513D01*
X121286801Y-79921825D01*
X121286794Y-79921823D01*
X121286793Y-79921823D01*
X121021167Y-79864040D01*
X121021160Y-79864039D01*
X120750001Y-79844645D01*
X120749999Y-79844645D01*
X120478839Y-79864039D01*
X120478832Y-79864040D01*
X120213206Y-79921823D01*
X120213202Y-79921824D01*
X120213199Y-79921825D01*
X120085843Y-79969326D01*
X119958480Y-80016830D01*
X119719892Y-80147109D01*
X119719891Y-80147110D01*
X119502259Y-80310028D01*
X119502247Y-80310038D01*
X119310038Y-80502247D01*
X119310028Y-80502259D01*
X119147110Y-80719891D01*
X119147109Y-80719892D01*
X119016830Y-80958480D01*
X118969326Y-81085843D01*
X118921825Y-81213199D01*
X118921824Y-81213202D01*
X118921823Y-81213206D01*
X118864040Y-81478832D01*
X118864039Y-81478839D01*
X118844645Y-81749998D01*
X118844645Y-81750001D01*
X118864039Y-82021160D01*
X118864040Y-82021167D01*
X118887599Y-82129467D01*
X118921825Y-82286801D01*
X118971941Y-82421167D01*
X119016830Y-82541519D01*
X119147109Y-82780107D01*
X119147110Y-82780108D01*
X119147113Y-82780113D01*
X119310029Y-82997742D01*
X119310033Y-82997746D01*
X119310038Y-82997752D01*
X119502247Y-83189961D01*
X119502253Y-83189966D01*
X119502258Y-83189971D01*
X119719887Y-83352887D01*
X119719891Y-83352889D01*
X119719892Y-83352890D01*
X119958481Y-83483169D01*
X119958484Y-83483171D01*
X119958487Y-83483172D01*
X120011527Y-83502954D01*
X120055874Y-83531455D01*
X120223331Y-83698913D01*
X120223336Y-83698917D01*
X120223339Y-83698920D01*
X120293670Y-83752886D01*
X120293671Y-83752888D01*
X120405386Y-83838610D01*
X120405388Y-83838611D01*
X120528089Y-83909452D01*
X120604113Y-83953345D01*
X120728300Y-84004784D01*
X120816113Y-84041158D01*
X120854781Y-84051519D01*
X121037761Y-84100549D01*
X121241553Y-84127377D01*
X121241555Y-84127378D01*
X121241556Y-84127378D01*
X121248151Y-84128246D01*
X121265266Y-84130500D01*
X121265267Y-84130500D01*
X121265270Y-84130500D01*
X125864727Y-84130500D01*
X125864734Y-84130500D01*
X126092238Y-84100548D01*
X126313887Y-84041158D01*
X126525888Y-83953344D01*
X126724612Y-83838611D01*
X126906661Y-83698919D01*
X126906667Y-83698913D01*
X126906670Y-83698911D01*
X127068914Y-83536666D01*
X127068918Y-83536662D01*
X127068919Y-83536661D01*
X127122900Y-83466310D01*
X127133580Y-83454131D01*
X127189971Y-83397742D01*
X127352887Y-83180113D01*
X127462791Y-82978839D01*
X127483169Y-82941519D01*
X127483169Y-82941517D01*
X127483172Y-82941513D01*
X127578175Y-82686801D01*
X127635961Y-82421160D01*
X127637257Y-82403037D01*
X127661674Y-82337574D01*
X127717607Y-82295702D01*
X127787299Y-82290718D01*
X127848622Y-82324203D01*
X128963181Y-83438762D01*
X128996666Y-83500085D01*
X128999500Y-83526443D01*
X128999500Y-86128138D01*
X128979815Y-86195177D01*
X128976805Y-86199645D01*
X128951101Y-86236059D01*
X128818894Y-86491206D01*
X128722667Y-86761962D01*
X128722666Y-86761965D01*
X128664201Y-87043319D01*
X128644592Y-87330000D01*
X128664201Y-87616680D01*
X128664201Y-87616684D01*
X128664202Y-87616686D01*
X128685984Y-87721509D01*
X128722666Y-87898034D01*
X128722667Y-87898037D01*
X128818894Y-88168793D01*
X128818893Y-88168793D01*
X128951098Y-88423935D01*
X129116812Y-88658700D01*
X129238141Y-88788611D01*
X129312947Y-88868708D01*
X129535853Y-89050055D01*
X129781375Y-89199361D01*
X129781377Y-89199362D01*
X129781379Y-89199363D01*
X129925045Y-89261766D01*
X129978692Y-89306529D01*
X129999621Y-89373190D01*
X129981189Y-89440585D01*
X129929246Y-89487315D01*
X129875643Y-89499500D01*
X109874500Y-89499500D01*
X109807461Y-89479815D01*
X109761706Y-89427011D01*
X109750500Y-89375500D01*
X109750500Y-81749998D01*
X111224645Y-81749998D01*
X111224645Y-81750001D01*
X111244039Y-82021160D01*
X111244040Y-82021167D01*
X111301823Y-82286796D01*
X111371682Y-82474094D01*
X111379500Y-82517427D01*
X111379500Y-85394435D01*
X111376666Y-85420793D01*
X111364040Y-85478832D01*
X111364039Y-85478839D01*
X111344645Y-85749998D01*
X111344645Y-85750001D01*
X111364039Y-86021160D01*
X111364040Y-86021167D01*
X111408297Y-86224614D01*
X111421825Y-86286801D01*
X111498063Y-86491203D01*
X111516830Y-86541519D01*
X111647109Y-86780107D01*
X111647110Y-86780108D01*
X111647113Y-86780113D01*
X111810029Y-86997742D01*
X111810033Y-86997746D01*
X111810038Y-86997752D01*
X112002247Y-87189961D01*
X112002253Y-87189966D01*
X112002258Y-87189971D01*
X112219887Y-87352887D01*
X112219891Y-87352889D01*
X112219892Y-87352890D01*
X112458481Y-87483169D01*
X112458480Y-87483169D01*
X112458484Y-87483170D01*
X112458487Y-87483172D01*
X112713199Y-87578175D01*
X112978840Y-87635961D01*
X113230605Y-87653967D01*
X113249999Y-87655355D01*
X113250000Y-87655355D01*
X113250001Y-87655355D01*
X113268100Y-87654060D01*
X113521160Y-87635961D01*
X113786801Y-87578175D01*
X114041513Y-87483172D01*
X114041517Y-87483169D01*
X114041519Y-87483169D01*
X114160813Y-87418029D01*
X114280113Y-87352887D01*
X114497742Y-87189971D01*
X114689971Y-86997742D01*
X114852887Y-86780113D01*
X114983172Y-86541513D01*
X115078175Y-86286801D01*
X115135961Y-86021160D01*
X115155355Y-85750000D01*
X115135961Y-85478840D01*
X115078175Y-85213199D01*
X114983172Y-84958487D01*
X114983170Y-84958484D01*
X114983169Y-84958480D01*
X114895668Y-84798234D01*
X114880500Y-84738807D01*
X114880500Y-82517427D01*
X114888318Y-82474094D01*
X114939237Y-82337574D01*
X114958175Y-82286801D01*
X115015961Y-82021160D01*
X115035355Y-81750000D01*
X115015961Y-81478840D01*
X114958175Y-81213199D01*
X114863172Y-80958487D01*
X114863170Y-80958484D01*
X114863169Y-80958480D01*
X114732890Y-80719892D01*
X114732889Y-80719891D01*
X114732887Y-80719887D01*
X114569971Y-80502258D01*
X114569966Y-80502253D01*
X114569961Y-80502247D01*
X114377752Y-80310038D01*
X114377746Y-80310033D01*
X114377742Y-80310029D01*
X114160113Y-80147113D01*
X114160108Y-80147110D01*
X114160107Y-80147109D01*
X113921518Y-80016830D01*
X113921519Y-80016830D01*
X113853641Y-79991513D01*
X113666801Y-79921825D01*
X113666794Y-79921823D01*
X113666793Y-79921823D01*
X113401167Y-79864040D01*
X113401160Y-79864039D01*
X113130001Y-79844645D01*
X113129999Y-79844645D01*
X112858839Y-79864039D01*
X112858832Y-79864040D01*
X112593206Y-79921823D01*
X112593202Y-79921824D01*
X112593199Y-79921825D01*
X112465843Y-79969326D01*
X112338480Y-80016830D01*
X112099892Y-80147109D01*
X112099891Y-80147110D01*
X111882259Y-80310028D01*
X111882247Y-80310038D01*
X111690038Y-80502247D01*
X111690028Y-80502259D01*
X111527110Y-80719891D01*
X111527109Y-80719892D01*
X111396830Y-80958480D01*
X111349326Y-81085843D01*
X111301825Y-81213199D01*
X111301824Y-81213202D01*
X111301823Y-81213206D01*
X111244040Y-81478832D01*
X111244039Y-81478839D01*
X111224645Y-81749998D01*
X109750500Y-81749998D01*
X109750500Y-74124500D01*
X109770185Y-74057461D01*
X109822989Y-74011706D01*
X109874500Y-74000500D01*
X137434108Y-74000500D01*
X138125500Y-74000500D01*
X138192539Y-74020185D01*
G37*
%TD.AperFunction*%
%TD*%
M02*
